<?xml version="1.0" encoding="UTF-8" standalone="no"?>
<svg
   xmlns:dc="http://purl.org/dc/elements/1.1/"
   xmlns:cc="http://creativecommons.org/ns#"
   xmlns:rdf="http://www.w3.org/1999/02/22-rdf-syntax-ns#"
   xmlns:svg="http://www.w3.org/2000/svg"
   xmlns="http://www.w3.org/2000/svg"
   viewBox="0 0 500 500"
   height="500"
   width="500"
   id="svg64"
   version="1.1">
  <metadata
     id="metadata70">
    <rdf:RDF>
      <cc:Work
         rdf:about="">
        <dc:format>image/svg+xml</dc:format>
        <dc:type
           rdf:resource="http://purl.org/dc/dcmitype/StillImage" />
        <dc:title></dc:title>
      </cc:Work>
    </rdf:RDF>
  </metadata>
  <defs
     id="defs68" />
  <path
     id="path78"
     d="m 155.69937,259.61587 c -7.37939,-0.54985 -15.25392,-2.3755 -21.77008,-5.04723 -17.50062,-7.17555 -31.38765,-20.43298 -39.232735,-37.45407 -4.92292,-10.681 -7.24862,-23.32636 -6.42215,-34.91864 0.75354,-10.56924 2.80915,-18.25987 7.37861,-27.6055 10.221505,-20.90541 30.170815,-35.89008 52.976235,-39.7924 15.87097,-2.71575 31.85364,-0.23427 46.07485,7.1536 28.35326,14.72942 43.72593,45.63105 38.41077,77.21207 -3.31884,19.7195 -14.78522,37.23729 -31.75881,48.51957 -10.68958,7.10532 -22.29876,11.00995 -35.52756,11.94933 -4.65867,0.33081 -5.483,0.32945 -10.12913,-0.0167 z m 16.99757,-1.17265 c 7.64052,-1.36549 14.01038,-3.4358 20.57915,-6.68858 18.92703,-9.37243 32.83438,-26.50088 38.15914,-46.99724 2.56694,-9.88081 2.95669,-21.78534 1.03445,-31.59685 -0.86927,-4.43696 -2.94153,-11.28634 -4.34525,-14.36221 -2.15778,-4.7282 -3.65481,-7.59224 -5.41573,-10.36111 -13.69897,-21.54021 -36.46467,-34.19766 -61.56866,-34.23142 -14.2865,-0.0192 -28.22394,4.20763 -40.05025,12.14613 -4.83239,3.24378 -7.50485,5.4572 -11.58747,9.59713 -15.460145,15.67715 -22.951115,37.23578 -20.494315,58.98155 0.42504,3.76216 0.57931,4.60478 1.69059,9.23433 1.50358,6.26384 4.62554,13.9701 7.71209,19.03654 3.002395,4.92833 4.944845,7.55066 9.828805,13.26904 1.19857,1.40335 6.62476,6.22926 9.22951,8.20849 10.04312,7.63129 21.96913,12.44363 35.20675,14.2065 4.69117,0.62473 15.37079,0.3888 20.02119,-0.4423 z m -13.97329,-3.89662 c -0.17985,-0.06 -0.30302,-1.56558 -0.30302,-3.70416 v -3.60315 h -0.92696 c -1.67335,0 -2.00497,0.39246 -2.22819,2.63695 -0.38241,3.84516 -0.44147,4.01502 -1.39609,4.01502 -0.47057,0 -0.9342,-0.1272 -1.03028,-0.28266 -0.17161,-0.27767 0.61278,-7.52522 0.92659,-8.56144 0.23628,-0.7802 1.59162,-0.6891 1.89362,0.12729 0.1609,0.43495 0.31665,0.53696 0.46164,0.30236 0.12035,-0.19473 0.54616,-0.35406 0.94624,-0.35406 0.76146,0 1.37107,-0.78052 1.13187,-1.44919 -0.0769,-0.21501 -0.0559,-0.72525 0.0466,-1.13386 0.14585,-0.58115 0.38274,-0.74293 1.08779,-0.74293 0.49572,0 0.91798,0.10205 0.93834,0.22677 0.0203,0.12473 0.0713,0.87862 0.11312,1.67533 0.0419,0.79671 0.1424,1.51484 0.22342,1.59586 0.081,0.081 0.52996,0.002 0.99767,-0.176 2.43677,-0.92646 4.65869,1.11304 4.68785,4.30297 l 0.0118,1.29475 0.40538,-0.93098 c 0.43634,-1.00208 1.72343,-1.7581 3.57725,-2.10125 0.65619,-0.12145 1.13386,-0.38433 1.13386,-0.624 0,-0.6698 -1.5216,-0.87091 -2.88364,-0.38112 -1.56031,0.56108 -1.95415,0.42875 -1.95415,-0.65661 0,-1.06551 0.15428,-1.16316 2.41222,-1.52679 2.047,-0.32966 3.64207,0.11502 4.20841,1.17323 0.32577,0.60871 0.93144,5.12379 0.93594,6.9771 0.002,1.00998 -0.0116,1.0206 -1.14818,0.86815 -0.72386,-0.0971 -1.36212,3e-4 -1.72078,0.26256 -0.76331,0.55814 -2.8805,0.52947 -3.70811,-0.0502 -0.36678,-0.2569 -0.78228,-0.9032 -0.92335,-1.43622 l -0.25646,-0.96913 -0.65871,1.27881 c -0.89008,1.72796 -1.89112,2.19299 -4.54784,2.11265 -1.18297,-0.0358 -2.28722,-0.11049 -2.45389,-0.16604 z m 4.8985,-0.67601 c 1.5853,-0.73734 2.39131,-3.08173 1.92115,-5.58793 -0.41425,-2.20811 -2.48527,-3.19701 -4.40141,-2.10164 -1.08583,0.62071 -1.20907,0.56695 -1.21278,-0.52913 -0.005,-1.47776 -0.34594,-3.2504 -0.62515,-3.2504 -0.13586,0 -0.28813,0.71261 -0.3384,1.58357 -0.0891,1.54338 -0.11825,1.58901 -1.14966,1.79776 -0.58204,0.1178 -1.43244,0.30547 -1.88976,0.41703 -0.71658,0.17482 -0.8315,0.11092 -0.8315,-0.46232 0,-0.39739 -0.15215,-0.61473 -0.37795,-0.53986 -0.22636,0.075 -0.51934,1.20691 -0.73048,2.82204 -0.19389,1.48321 -0.4294,3.27501 -0.52335,3.98178 -0.13051,0.98177 -0.0708,1.28504 0.25292,1.28504 0.46594,0 0.64261,-0.68062 0.94182,-3.62834 0.25945,-2.55594 0.68506,-3.02363 2.75162,-3.02363 h 1.61613 v 3.61097 3.61096 l 1.28504,0.11574 c 0.70677,0.0637 1.58478,0.13951 1.95113,0.16856 0.36635,0.0291 0.97863,-0.0925 1.36063,-0.2702 z m -2.78262,-0.54077 c -0.72994,-0.21285 -0.75887,-0.31992 -0.84197,-3.11606 l -0.0861,-2.89563 1.03885,-0.49296 c 1.35086,-0.64103 2.08135,-0.62232 2.94296,0.0754 0.58488,0.47361 0.72165,0.91838 0.82053,2.66822 0.10552,1.86754 0.0399,2.18941 -0.59279,2.90915 -0.76435,0.86946 -2.06416,1.2069 -3.28151,0.85191 z m 2.67929,-1.10284 c 0.57998,-0.54947 0.79608,-2.98998 0.35833,-4.0468 -0.43147,-1.04165 -1.34482,-1.36263 -2.41779,-0.84968 -0.72106,0.34471 -0.77668,0.52856 -0.85847,2.83737 -0.0838,2.36522 -0.0584,2.47418 0.60472,2.59763 0.88902,0.1655 1.79198,-0.0447 2.31321,-0.53852 z m 7.68353,0.75719 c 0.83395,-0.65599 1.4293,-0.78193 1.4293,-0.30236 0,0.1663 0.2041,0.30236 0.45355,0.30236 0.53495,0 0.54362,-0.22868 0.1417,-3.73689 -0.35814,-3.12605 -0.58458,-3.65388 -1.74039,-4.0568 -1.18973,-0.41474 -4.29738,0.12804 -4.29738,0.75058 0,0.3152 0.16326,0.38891 0.52914,0.23891 1.04079,-0.42671 3.02195,-0.51512 3.67778,-0.16413 0.47764,0.25563 0.6405,0.58247 0.57341,1.15072 -0.074,0.62713 -0.31579,0.84692 -1.15198,1.04733 -2.08471,0.49967 -3.33141,1.21086 -3.54502,2.02228 -0.68167,2.58948 1.86634,4.37119 3.92989,2.748 z m -2.19904,-0.2141 c -0.24945,-0.0984 -0.55351,-0.32861 -0.67569,-0.51155 -0.38274,-0.57309 -0.25137,-2.20735 0.2081,-2.58867 0.62692,-0.5203 3.03444,-1.20105 3.41525,-0.9657 0.17633,0.10898 0.3676,0.79238 0.42505,1.51867 0.0889,1.12372 -0.008,1.40333 -0.65145,1.87612 -0.86702,0.63725 -2.06086,0.93168 -2.72126,0.67113 z m 2.13641,-1.00598 c 0.40546,-0.217 0.58485,-0.63433 0.58485,-1.36063 0,-1.19379 -0.33171,-1.29616 -1.97507,-0.60952 -0.78083,0.32625 -1.04856,0.62219 -1.04856,1.15906 0,0.39651 0.0907,0.81164 0.20158,0.92251 0.30491,0.30491 1.57772,0.24152 2.2372,-0.11142 z m -21.53801,1.42164 c -0.24887,-0.26642 -0.8473,-0.35795 -1.76424,-0.26984 -1.17592,0.11299 -1.53545,0.009 -2.35656,-0.68198 -0.53292,-0.44842 -0.97969,-1.10935 -0.99281,-1.46874 -0.0164,-0.44895 -0.0779,-0.51151 -0.19652,-0.1999 -0.26462,0.69515 -0.72711,0.89741 -2.06355,0.90246 -1.5886,0.006 -4.16293,-1.27746 -5.04628,-2.51588 -1.02884,-1.44237 -0.95611,-4.62768 0.15429,-6.75838 1.14702,-2.20094 2.55868,-3.20276 4.73475,-3.36017 2.90042,-0.2098 5.72947,1.67486 5.31905,3.54345 -0.20064,0.91353 -0.18192,0.93196 0.95322,0.93847 1.43571,0.008 3.56969,0.94684 4.00593,1.76195 0.17972,0.3358 0.32676,0.94891 0.32676,1.36246 0,0.64147 -0.91142,4.95828 -1.39773,6.62013 -0.18307,0.62563 -1.14222,0.6977 -1.67631,0.12597 z m 1.86338,-3.67321 c 0.7562,-3.44575 0.66501,-4.13211 -0.65879,-4.95884 -0.96124,-0.60031 -3.87589,-0.8296 -3.87359,-0.30472 0.001,0.29031 0.42031,0.43177 1.35521,0.45752 1.81202,0.0499 2.94238,0.80038 2.81868,1.87143 -0.0917,0.79365 -0.13684,0.81061 -1.94183,0.72857 -2.41109,-0.10958 -3.36482,0.27571 -3.90954,1.57942 -0.93743,2.24359 1.36101,4.33048 3.50547,3.1828 0.45516,-0.24359 0.6912,-0.1816 1.09232,0.28688 0.28144,0.32868 0.60158,0.54206 0.71143,0.47417 0.10985,-0.0679 0.51514,-1.56065 0.90064,-3.31723 z m -4.50268,1.87979 c -1.43437,-0.73959 -1.35537,-2.68514 0.13199,-3.25063 0.8612,-0.32743 3.20353,-0.0716 3.5008,0.38232 0.10294,0.1572 0.0565,0.80069 -0.10325,1.42998 -0.41616,1.63955 -1.93718,2.25939 -3.52954,1.43833 z m 2.38735,-0.82704 c 0.96479,-0.96478 0.78681,-1.72675 -0.43669,-1.86959 -1.52069,-0.17753 -2.28457,0.19485 -2.28457,1.11369 0,0.52151 0.22275,0.86492 0.68032,1.04884 1.03445,0.4158 1.3821,0.3659 2.04094,-0.29294 z m -5.78531,-0.22677 c 0.25326,-0.47319 0.14116,-0.51781 -1.06026,-0.42209 -2.80246,0.22329 -4.34576,-1.14792 -4.33519,-3.85176 0.0191,-4.88465 4.09122,-7.53927 7.22378,-4.70919 0.7549,0.682 1.25975,0.94941 1.39112,0.73685 0.29636,-0.47953 -0.63029,-1.38819 -2.1814,-2.13908 -2.57438,-1.24623 -5.05581,-0.31936 -6.56407,2.45183 -2.04126,3.75046 -0.92011,7.04924 2.77384,8.16151 1.40726,0.42373 2.44955,0.33736 2.75218,-0.22807 z m -0.0241,-1.16629 c 0.53518,-0.10704 0.97886,-0.41598 1.06378,-0.74072 0.0801,-0.30641 0.60242,-0.84436 1.16064,-1.19545 0.86012,-0.54096 1.30696,-0.61081 2.92899,-0.45782 1.72716,0.16289 1.90393,0.12779 1.81049,-0.35952 -0.13322,-0.69484 -1.92981,-1.32665 -3.19539,-1.12374 -1.01785,0.1632 -1.10307,0.0544 -0.99859,-1.27488 0.0306,-0.38923 -0.42151,-1.14586 -1.12916,-1.88977 -1.03822,-1.09137 -1.34273,-1.24063 -2.53108,-1.24063 -1.07903,0 -1.51115,0.16733 -2.14731,0.8315 -1.51815,1.58498 -2.22753,4.63869 -1.42564,6.13704 0.64784,1.21049 2.40061,1.72651 4.46325,1.31399 z m 31.97723,3.43401 c -0.47997,-1.52766 -2.30207,-9.98981 -2.36008,-10.96063 -0.0686,-1.14751 -0.0247,-1.2141 0.85747,-1.30025 l 0.92975,-0.0908 0.54693,2.5097 c 0.30081,1.38033 0.86889,3.82695 1.26238,5.43693 0.90811,3.7155 0.91302,4.35716 0.0351,4.59243 -0.97384,0.26098 -1.13833,0.23674 -1.27158,-0.18738 z m 1.34717,-0.85671 c 0,-0.18017 -0.25973,-1.37072 -0.57718,-2.64567 -0.31745,-1.27495 -0.87287,-3.64471 -1.23427,-5.26613 -0.48021,-2.15448 -0.78131,-2.94803 -1.11859,-2.94803 -0.32619,0 -0.41284,0.19946 -0.29553,0.68032 0.0913,0.37417 0.6736,2.89134 1.29404,5.5937 0.76183,3.3182 1.2585,4.91338 1.5298,4.91338 0.22096,0 0.40173,-0.1474 0.40173,-0.32757 z m 0.67213,-5.64329 c -1.48328,-5.54843 -1.55902,-5.99532 -1.07607,-6.34846 0.86998,-0.63614 1.58376,-0.45683 1.79767,0.45161 0.10769,0.45732 0.7906,3.04391 1.51757,5.74798 1.48581,5.52661 1.50779,5.68129 0.8435,5.9362 -1.35973,0.52178 -1.43263,0.38493 -3.08267,-5.78733 z m 2.75975,5.13706 c 0.12937,-0.20933 -2.64006,-10.87202 -2.88826,-11.12022 -0.0592,-0.0592 -0.25253,-0.0129 -0.42968,0.10275 -0.21703,0.14172 -0.009,1.34459 0.63714,3.68749 0.52757,1.91245 1.2018,4.3956 1.49828,5.51812 0.49861,1.88779 0.82578,2.38908 1.18252,1.81186 z m 3.40735,-0.99823 c -2.87191,-0.83531 -4.50037,-5.3776 -2.82307,-7.87443 1.38442,-2.06086 4.46995,-2.31491 6.23156,-0.5131 1.86941,1.91208 2.4046,5.44192 1.05175,6.93681 -1.12003,1.23761 -3.04277,1.863 -4.46024,1.45072 z m 3.1696,-1.27735 c 1.99599,-1.34145 1.84223,-4.46189 -0.32672,-6.63084 -1.26131,-1.2613 -2.0919,-1.41861 -3.77567,-0.71509 -1.88484,0.78754 -2.47997,3.11742 -1.40235,5.4901 1.13073,2.48961 3.41558,3.25991 5.50474,1.85583 z m -3.73459,-0.74573 c -0.96694,-1.01358 -1.43644,-2.18772 -1.43644,-3.59232 0,-1.47376 0.42687,-2.12256 1.66547,-2.53134 0.90973,-0.30023 1.20781,-0.26842 2.04027,0.21776 1.07418,0.62735 1.99478,2.5647 2.0227,4.25665 0.0373,2.26141 -2.70334,3.31453 -4.292,1.64925 z m 3.08721,-0.43497 c 0.73808,-0.79223 0.76053,-1.22676 0.15519,-3.00333 -0.73729,-2.16384 -2.53506,-2.81403 -3.74608,-1.35484 -1.01576,1.22391 0.68239,5.01991 2.24565,5.01991 0.40081,0 1.00617,-0.29778 1.34524,-0.66174 z m -52.90563,-4.42088 c -0.65226,-0.52816 -0.65841,-0.58071 -0.17691,-1.51181 0.54008,-1.04441 1.46494,-1.26778 2.40453,-0.58073 0.4857,0.35515 0.48973,0.46834 0.0537,1.51181 -0.53111,1.27113 -1.21406,1.44498 -2.28136,0.58073 z m 1.72163,-1.40594 c -0.2029,-0.60951 -1.06069,-0.50182 -1.27058,0.15951 -0.27886,0.8786 0.46286,1.37619 0.99327,0.66634 0.21012,-0.2812 0.3349,-0.65283 0.27731,-0.82585 z m 54.37835,0.75869 c -0.64375,-1.24488 -0.5795,-1.67827 0.30882,-2.08301 1.14039,-0.5196 1.30701,-0.45403 1.87549,0.73808 0.51117,1.07194 0.50821,1.09797 -0.18957,1.66299 -0.9827,0.79575 -1.45796,0.71997 -1.99474,-0.31806 z m 1.73579,-0.19636 c 0.0997,-0.0997 0.0351,-0.50238 -0.1437,-0.89476 -0.26353,-0.57837 -0.43213,-0.65611 -0.89071,-0.41068 -0.45153,0.24165 -0.50173,0.42217 -0.24881,0.89476 0.30945,0.5782 0.92023,0.77367 1.28322,0.41068 z m -34.39867,-3.32308 c -11.17779,-1.57204 -19.80437,-5.44368 -27.95738,-12.5474 -8.2656,-7.20182 -14.161,-17.28608 -16.37426,-28.00868 -0.89936,-4.35713 -1.1212,-13.39974 -0.43261,-17.63397 1.57274,-9.67103 4.93476,-17.24488 10.96857,-24.70961 5.35364,-6.62328 12.47233,-11.87625 20.42644,-15.07296 12.12954,-4.87477 25.5504,-4.90847 37.86058,-0.095 14.49523,5.6678 26.57284,19.19155 30.35904,33.99414 3.24764,12.69707 1.9765,24.97344 -3.76181,36.3306 -6.02402,11.92264 -16.70354,21.16532 -29.30655,25.3636 -5.4114,1.80264 -8.41921,2.28493 -14.97887,2.40183 -3.24284,0.0578 -6.30426,0.0477 -6.80315,-0.0225 z m 10.44172,-0.44183 c 13.89052,-1.42544 26.33294,-8.26443 34.91555,-19.19138 12.20302,-15.53627 14.2165,-37.20078 5.05156,-54.35352 -10.76515,-20.14763 -32.83152,-30.69457 -54.83702,-26.21013 -7.50911,1.53026 -15.20476,5.13105 -21.2726,9.95345 -2.58286,2.05272 -7.00627,6.6501 -9.10728,9.46548 -3.92335,5.25731 -7.46325,12.69463 -8.59831,18.06503 -1.86469,8.82262 -1.92548,14.65557 -0.23787,22.82835 2.49499,12.08283 10.32922,23.59662 21.03573,30.91571 9.66538,6.60737 21.64301,9.69762 33.05024,8.52701 z m -10.56763,-2.14086 c -10.66155,-1.27445 -21.79761,-6.78926 -28.84571,-14.28498 -8.74748,-9.30304 -13.10768,-19.37114 -13.69984,-31.63421 -0.66573,-13.78658 4.22661,-26.3899 14.09372,-36.30724 10.1983,-10.25024 23.06517,-15.078 37.72419,-14.15444 18.98544,1.19613 35.90527,14.11912 42.21327,32.24154 2.08409,5.98742 2.46219,8.4738 2.44889,16.10361 -0.0102,5.85202 -0.10376,7.21463 -0.66925,9.74636 -4.33037,19.38755 -19.15969,33.97096 -38.36297,37.72678 -3.85404,0.75378 -11.03494,1.02487 -14.9023,0.56258 z m 13.66002,-1.15724 c 19.76518,-3.37902 35.41022,-18.86461 39.1148,-38.71612 0.8084,-4.33192 0.73323,-13.01066 -0.14867,-17.16473 -1.59435,-7.50997 -4.34349,-13.7574 -8.47896,-19.2685 -7.38314,-9.83907 -17.71312,-16.34676 -29.81026,-18.77989 -4.19478,-0.8437 -13.44971,-0.77573 -17.61969,0.12942 -4.81941,1.04611 -7.74683,2.05915 -12.01181,4.15671 -13.20038,6.4921 -22.93834,19.30891 -25.82958,33.99612 -1.06402,5.40515 -0.94174,12.88564 0.30469,18.63861 3.82434,17.65148 17.54271,31.82917 35.09015,36.26503 4.22941,1.06917 5.85005,1.25724 11.1921,1.29887 3.461,0.027 5.66295,-0.12226 8.19723,-0.55552 z m -5.04799,-8.98823 c -0.7335,-0.82851 -1.1027,-1.00206 -2.13168,-1.00206 -0.68449,0 -1.40121,0.15669 -1.59273,0.3482 -0.20925,0.20926 -1.83205,0.39919 -4.06677,0.47598 -3.26052,0.11203 -3.84892,0.0557 -4.77683,-0.4574 -0.84517,-0.46733 -1.07471,-0.7915 -1.13989,-1.60983 -0.19523,-2.45091 -0.17354,-2.43036 -2.42263,-2.2945 -1.11715,0.0675 -2.27505,0.2275 -2.57311,0.35557 -0.75764,0.32557 -3.46145,-0.0786 -4.32914,-0.64715 -0.52924,-0.34677 -0.7307,-0.76764 -0.75277,-1.57257 -0.0166,-0.6045 -0.11863,-1.40304 -0.22678,-1.77453 -0.21137,-0.7261 -3.037,-2.70788 -4.27852,-3.00078 -0.41575,-0.0981 -1.33417,-0.73404 -2.04094,-1.41323 -1.079,-1.03688 -1.28504,-1.42306 -1.28504,-2.4085 0,-1.94082 1.64471,-2.9905 4.81811,-3.07499 1.55064,-0.0413 2.01105,-0.1667 2.26771,-0.61772 0.17713,-0.31125 0.63313,-0.89118 1.01335,-1.28873 0.59909,-0.62641 0.86121,-0.69429 1.96535,-0.50901 0.70073,0.11759 1.54245,0.40084 1.87047,0.62945 0.32803,0.22861 0.87228,0.41997 1.20945,0.42526 0.33717,0.005 0.87715,0.20938 1.19996,0.45354 0.32281,0.24416 1.17612,0.44393 1.89625,0.44393 1.14731,0 1.34988,-0.10289 1.63713,-0.8315 1.08576,-2.75407 1.1189,-2.79685 2.16662,-2.79685 0.55296,0 1.26949,0.19977 1.5923,0.44393 0.3228,0.24416 0.86585,0.44825 1.20676,0.45355 0.34092,0.005 0.74911,0.12274 0.90709,0.261 0.51058,0.44686 2.65962,0.91963 4.52031,0.99445 2.0191,0.0812 1.9563,0.18453 1.4959,-2.46142 -0.28575,-1.64219 0.46157,-2.1218 3.85961,-2.477 1.54455,-0.16145 2.93753,-0.41714 3.09552,-0.5682 0.15798,-0.15106 0.69769,-0.27465 1.19934,-0.27465 2.00406,0 5.02942,-1.63209 5.00191,-2.69838 -0.007,-0.26203 -0.41494,-0.94751 -0.90708,-1.52327 -0.49214,-0.57577 -0.8948,-1.18805 -0.89479,-1.36063 1e-5,-0.45832 1.75388,-1.78283 3.59855,-2.71759 2.97496,-1.50752 5.61552,-5.01029 5.52819,-7.33326 -0.0358,-0.95181 0.0262,-1.02767 0.7682,-0.94047 0.63252,0.0743 0.96413,0.4219 1.53292,1.60667 0.39919,0.83149 0.83959,1.73373 0.97867,2.00497 0.41195,0.80342 0.44534,7.79008 0.0392,8.19625 -0.19317,0.19317 -0.35122,0.77301 -0.35122,1.28854 0,0.51553 -0.12895,1.06658 -0.28656,1.22457 -0.1576,0.15798 -0.64352,0.95898 -1.07982,1.77999 -1.14858,2.1614 -3.74887,5.56411 -4.41309,5.77492 -0.31358,0.0995 -0.57014,0.2841 -0.57014,0.41015 0,0.25916 -3.53619,3.15168 -4.23307,3.46255 -0.24945,0.11128 -0.9978,0.54628 -1.66299,0.96667 -1.64207,1.03776 -3.03491,1.65044 -3.75197,1.65044 -0.32813,0 -0.67098,0.12037 -0.7619,0.26748 -0.0909,0.14711 -0.81328,0.36181 -1.60525,0.4771 -0.79197,0.1153 -1.71206,0.38174 -2.04466,0.59208 -0.99621,0.63003 -3.67046,0.90128 -8.46614,0.85874 -6.3502,-0.0563 -11.53485,-0.73999 -12.78034,-1.68522 -0.53673,-0.40734 -2.77346,-0.78368 -2.95094,-0.49651 -0.0806,0.13046 0.50056,0.46193 1.29155,0.73659 0.79098,0.27467 1.82335,0.69444 2.29415,0.93283 0.4708,0.2384 1.15111,0.43429 1.51181,0.43531 0.3607,9.1e-4 1.064,0.22055 1.5629,0.48783 1.34935,0.72291 14.58902,0.72426 16.24226,0.002 0.61828,-0.27024 1.50269,-0.49567 1.96535,-0.50096 0.46267,-0.005 1.10533,-0.20938 1.42813,-0.45354 0.32281,-0.24416 0.88442,-0.44393 1.24802,-0.44393 0.3636,0 0.83048,-0.20409 1.0375,-0.45354 0.20702,-0.24945 0.62384,-0.45355 0.92627,-0.45355 0.30242,0 0.63394,-0.13606 0.73672,-0.30236 0.10278,-0.1663 0.46209,-0.30236 0.79847,-0.30236 0.72447,0 3.86454,-1.79142 5.49226,-3.13334 2.95766,-2.43835 6.16663,-5.9573 6.9786,-7.65273 0.4641,-0.96908 0.96587,-1.96606 1.11503,-2.21551 1.15664,-1.93436 1.56155,-3.79699 1.51761,-6.98129 -0.0378,-2.73794 -0.68054,-5.09279 -1.87433,-6.86694 -0.48118,-0.71496 -0.87488,-1.48742 -0.87488,-1.71642 0,-0.57287 -1.83089,-2.03117 -3.8026,-3.02876 -1.74526,-0.88302 -1.8902,-1.08059 -1.2081,-1.64669 0.33702,-0.2797 0.63769,-0.25192 1.36951,0.12652 0.51573,0.26669 1.05323,0.41349 1.19444,0.32621 0.14122,-0.0873 0.66064,0.0428 1.15427,0.28905 0.49363,0.24626 1.61918,0.5846 2.50122,0.75188 0.88205,0.16727 1.75327,0.42765 1.93607,0.57862 0.18279,0.15096 0.84409,0.37011 1.46955,0.487 0.62546,0.11688 1.21176,0.33315 1.30289,0.4806 0.0911,0.14744 0.39819,0.26808 0.68237,0.26808 1.15167,0 2.70768,1.45966 3.22892,3.02896 0.47788,1.43875 0.47743,1.59762 -0.007,2.61943 -0.65991,1.39066 -0.44026,3.2135 0.51667,4.28771 0.9784,1.09831 2.0591,2.68134 2.0591,3.01621 0,0.15267 0.2066,0.44905 0.45912,0.65862 0.78185,0.64888 1.8316,3.343 2.12155,5.44486 0.24291,1.76077 -0.3727,2.36962 -2.71763,2.68783 -1.41118,0.1915 -1.91165,0.43363 -2.92226,1.41381 -1.56389,1.51678 -2.01375,2.61963 -2.24353,5.50001 -0.20083,2.51758 -0.68897,4.49812 -1.89519,7.68946 -0.68113,1.8021 -0.89686,2.08082 -1.93071,2.49449 -1.41434,0.56591 -2.86899,0.58172 -3.84334,0.0418 -0.39946,-0.22137 -0.97749,-0.33681 -1.2845,-0.25652 -0.307,0.0803 -0.8938,-0.0739 -1.30399,-0.3427 -1.79508,-1.17618 -3.43833,-0.45075 -7.11669,3.14173 -3.38339,3.3044 -4.58884,3.94393 -7.29337,3.86939 -1.77333,-0.0489 -2.00006,-0.13384 -2.81578,-1.05521 z m 5.70275,-0.36666 c 0.67738,-0.30529 2.36404,-1.66501 3.74814,-3.02161 3.16704,-3.10412 3.49712,-3.31383 5.79981,-3.68466 1.52824,-0.24612 1.98201,-0.22181 2.37968,0.1275 0.27026,0.23739 1.00161,0.51522 1.62523,0.61741 0.62362,0.10219 1.59211,0.26662 2.15219,0.3654 1.46261,0.25796 2.80471,-0.51046 3.07701,-1.76175 0.11825,-0.54336 0.40171,-1.25631 0.62991,-1.58434 0.2282,-0.32802 0.41491,-0.87908 0.41491,-1.22457 0,-0.34548 0.13566,-0.76381 0.30147,-0.92962 0.16581,-0.16581 0.44904,-1.76771 0.6294,-3.55977 0.40078,-3.9822 0.73585,-4.82707 2.60937,-6.57953 1.25257,-1.17163 1.70675,-1.40072 3.1054,-1.56637 0.96326,-0.11409 1.84937,-0.41498 2.15064,-0.7303 0.47206,-0.49406 0.47623,-0.67903 0.0531,-2.35044 -0.44957,-1.77574 -2.90755,-5.96531 -4.55956,-7.77169 -0.95103,-1.03989 -1.24229,-3.39983 -0.58276,-4.72188 1.00391,-2.01239 -0.52718,-4.06144 -3.9022,-5.22231 -0.97361,-0.33488 -2.19895,-0.8058 -2.72298,-1.0465 -0.52403,-0.24069 -1.22125,-0.43762 -1.54939,-0.43762 -0.32813,0 -1.17507,-0.20409 -1.88208,-0.45354 -1.72947,-0.61019 -1.861,-0.57016 -0.60472,0.18406 1.5146,0.9093 2.41889,1.80717 2.41889,2.4017 0,0.28325 0.20661,0.68646 0.45913,0.89604 0.45474,0.3774 0.92453,1.2752 1.73798,3.32135 0.23139,0.58205 0.45436,1.9271 0.49549,2.989 0.0411,1.0619 0.19178,2.23846 0.33478,2.61458 0.143,0.37612 0.18243,0.76141 0.0876,0.85622 -0.0948,0.0948 -0.21015,0.48296 -0.25633,0.86258 -0.22807,1.87487 -0.83902,3.67557 -2.1254,6.2644 -1.16257,2.33966 -1.85253,3.27368 -3.90461,5.28579 -1.37089,1.34418 -3.06829,2.92019 -3.772,3.50223 -1.68709,1.39541 -4.52942,2.99113 -5.36008,3.00921 -0.36436,0.008 -0.74656,0.15048 -0.84934,0.31678 -0.10278,0.1663 -0.43431,0.30236 -0.73673,0.30236 -0.30242,0 -0.71924,0.20409 -0.92627,0.45354 -0.20702,0.24945 -0.67389,0.45355 -1.0375,0.45355 -0.3636,0 -0.9252,0.19976 -1.24801,0.44393 -0.32281,0.24415 -0.95835,0.44825 -1.4123,0.45354 -0.45396,0.005 -1.33837,0.20271 -1.96536,0.43872 -1.02391,0.38542 -6.68444,0.93086 -9.00139,0.86736 -3.69159,-0.10118 -7.71407,-0.51212 -8.51184,-0.86956 -0.52403,-0.2348 -1.27612,-0.42691 -1.67131,-0.42691 -0.39518,0 -0.98691,-0.18478 -1.31493,-0.41064 -0.32803,-0.22585 -1.07263,-0.49838 -1.65468,-0.6056 -1.67683,-0.30892 -3.08075,-1.29785 -2.96805,-2.0907 0.0803,-0.56489 0.26506,-0.66168 1.15388,-0.60448 1.8839,0.12124 3.11719,0.37754 3.75752,0.7809 1.6425,1.03465 6.34761,1.6755 12.57004,1.71208 4.3961,0.0258 7.15558,-0.26076 7.59373,-0.78869 0.18795,-0.22647 0.63121,-0.41774 0.98502,-0.42503 0.35381,-0.007 1.18755,-0.22115 1.85274,-0.47522 0.6652,-0.25407 1.68567,-0.52425 2.26772,-0.60041 0.58205,-0.0761 1.42483,-0.405 1.87285,-0.73078 0.44802,-0.32577 1.46849,-0.95524 2.26772,-1.39882 1.68812,-0.93692 4.62793,-3.16628 4.62793,-3.50953 0,-0.12936 0.40378,-0.48075 0.89729,-0.78086 1.03225,-0.62775 3.59453,-3.98233 4.55116,-5.95847 0.35812,-0.73977 0.77541,-1.42186 0.92732,-1.51574 0.15191,-0.0939 0.2762,-0.63086 0.2762,-1.19328 0,-0.56242 0.13607,-1.10667 0.30237,-1.20945 0.38257,-0.23644 0.40131,-6.3239 0.0216,-7.03403 -0.15438,-0.28876 -0.58906,-1.20099 -0.96596,-2.02716 l -0.68527,-1.50213 -0.26499,1.04859 c -0.5232,2.0703 -1.70793,4.09253 -3.14564,5.36931 -2.01849,1.79256 -2.13657,1.8777 -2.60405,1.8777 -0.22719,0 -1.072,0.46848 -1.87734,1.04105 l -1.46426,1.04105 0.95749,0.89444 c 1.19706,1.11821 1.31558,2.64579 0.27718,3.57232 -0.79176,0.70646 -3.02535,1.58 -4.49504,1.75797 -0.56269,0.0681 -1.63535,0.262 -2.3837,0.4308 -0.74835,0.16879 -1.94565,0.31283 -2.66068,0.32007 -0.71503,0.007 -1.71627,0.2284 -2.22498,0.49146 -0.79985,0.41363 -0.90003,0.59759 -0.74089,1.36063 0.10122,0.48529 0.26462,1.26826 0.36311,1.73993 0.28065,1.34403 -0.45618,1.86588 -2.37778,1.68399 -2.34084,-0.22157 -5.0532,-0.7774 -5.23587,-1.07297 -0.0881,-0.14254 -0.46628,-0.25916 -0.84043,-0.25916 -0.37415,0 -0.94439,-0.19977 -1.2672,-0.44393 -1.28283,-0.97029 -1.62567,-0.68619 -2.81623,2.33369 -0.30535,0.77453 -0.44859,0.8315 -2.09067,0.8315 -1.08194,0 -1.98957,-0.17148 -2.34979,-0.44393 -0.32281,-0.24416 -0.79102,-0.44909 -1.04047,-0.45541 -0.24945,-0.006 -0.79968,-0.19211 -1.22273,-0.4129 -0.42305,-0.22078 -1.20825,-0.48923 -1.74488,-0.59656 -1.01551,-0.2031 -1.21349,-0.074 -2.46335,1.6059 -0.47152,0.63378 -0.82191,0.75936 -2.17654,0.78012 -0.888,0.0136 -1.91025,0.0479 -2.27166,0.0761 -0.85783,0.0671 -2.51769,1.47255 -2.51769,2.13184 0,0.80551 2.43341,2.9224 3.8046,3.30971 0.67899,0.19179 1.63143,0.69104 2.11654,1.10944 0.4851,0.4184 1.11112,0.83425 1.39114,0.92411 0.362,0.11617 0.56938,0.66177 0.71762,1.88795 0.11468,0.9485 0.33462,1.88281 0.48876,2.07622 0.38339,0.48108 3.19777,0.84122 3.66036,0.46841 0.52708,-0.42479 4.74019,-0.45143 5.24417,-0.0332 0.23774,0.1973 0.41618,0.91481 0.41618,1.67345 0,1.16923 0.11752,1.40238 0.98268,1.94963 0.8811,0.55733 1.3365,0.60778 4.40576,0.48806 1.95892,-0.0764 3.56909,-0.27952 3.76441,-0.47485 0.18773,-0.18772 1.0406,-0.34132 1.89526,-0.34132 1.36807,0 1.66095,0.11754 2.44857,0.98268 0.77456,0.85078 1.11292,0.99155 2.52093,1.04878 1.0535,0.0428 2.06006,-0.1294 2.85788,-0.48897 z M 146.93089,199.1637 c -0.24944,-0.16121 -0.82293,-0.29519 -1.2744,-0.29774 -1.00552,-0.006 -1.77381,-1.10759 -0.98365,-1.4108 0.2691,-0.10327 1.00509,-0.0332 1.63552,0.15566 0.63043,0.18889 1.47741,0.34343 1.88218,0.34343 0.80522,0 1.46161,0.50241 1.46161,1.11874 0,0.46796 -2.03266,0.53571 -2.72126,0.0907 z m 3.98029,-0.18532 c 0.0874,-0.45379 0.57285,-0.62644 2.5526,-0.90783 1.34458,-0.1911 2.70379,-0.48216 3.02047,-0.64678 0.31668,-0.16462 1.20529,-0.39056 1.97469,-0.50207 1.13839,-0.165 1.43419,-0.11081 1.58838,0.29099 0.25983,0.67712 -0.0251,1.04357 -0.81301,1.04578 -0.36436,9.1e-4 -1.07066,0.22643 -1.56956,0.50091 -0.60066,0.33046 -1.91281,0.54638 -3.88428,0.6392 -2.77547,0.13066 -2.96989,0.10219 -2.86929,-0.4202 z m -8.36454,-1.62886 c -0.10278,-0.1663 -0.6294,-0.30236 -1.17028,-0.30236 -0.56547,0 -1.25927,-0.257 -1.6325,-0.60472 -0.38671,-0.36027 -1.06704,-0.60473 -1.68298,-0.60473 -0.56864,0 -1.19146,-0.18986 -1.38405,-0.42191 -0.19259,-0.23206 -0.8307,-0.51207 -1.41802,-0.62225 -2.31727,-0.43472 -3.76107,-1.90962 -3.12447,-3.19178 0.51131,-1.02983 -0.47132,-3.32346 -2.23124,-5.20812 -0.94527,-1.01226 -1.71866,-2.09325 -1.71866,-2.4022 0,-0.30894 -0.34407,-1.21974 -0.7646,-2.02399 -1.0618,-2.03066 -1.48849,-4.77394 -0.88565,-5.694 0.36976,-0.56432 0.72612,-0.69402 1.90687,-0.69402 2.25124,0 3.10735,-1.33812 3.51844,-5.49939 0.11496,-1.16374 0.38295,-2.17426 0.63125,-2.38034 0.23731,-0.19695 0.43148,-0.87765 0.43148,-1.51267 0,-0.63502 0.11933,-1.22833 0.26517,-1.31847 0.14585,-0.0901 0.42191,-0.8125 0.61348,-1.60525 0.82468,-3.41277 2.68554,-5.55631 4.98121,-5.7379 0.98879,-0.0782 1.3771,0.0622 2.13427,0.77168 0.50906,0.47702 1.16084,0.94967 1.44841,1.05033 0.80845,0.28298 2.77317,-0.93157 4.58461,-2.83413 1.82529,-1.9171 2.99853,-2.86119 5.02167,-4.0409 3.14263,-1.83249 5.06078,-2.32755 7.86142,-2.02897 2.12981,0.22707 2.72126,0.46159 2.72126,1.07904 0,1.19025 2.62569,1.52352 4.28593,0.544 1.19494,-0.70501 7.33162,-0.0383 8.33645,0.90565 0.37486,0.35216 0.68156,0.82367 0.68156,1.04779 0,0.69182 2.60816,2.11544 4.28255,2.33756 2.73129,0.36231 3.88123,1.27361 3.88123,3.07577 0,1.3849 0.49738,2.0009 1.75117,2.16881 1.05735,0.1416 3.5801,2.30558 3.8249,3.28096 0.10927,0.43534 0.39604,0.98891 0.63728,1.23015 0.24124,0.24123 0.43862,0.62768 0.43862,0.85878 0,0.73241 -1.27543,1.65317 -2.28996,1.65317 -1.0426,0 -1.94311,0.96578 -1.94311,2.08395 0,0.83068 -1.44351,1.90609 -2.23964,1.66853 -0.67914,-0.20265 -2.7614,-1.14601 -3.50525,-1.58804 -1.09171,-0.64874 -4.41689,-2.16466 -4.74798,-2.16456 -0.20004,7e-5 -0.72175,0.16325 -1.15934,0.36263 -0.81763,0.37254 -0.86057,0.76057 -0.28551,2.58014 0.2929,0.92677 -0.88261,1.3728 -2.64835,1.00488 -5.73792,-1.19562 -6.08819,-1.23349 -7.48638,-0.80938 -1.46881,0.44552 -1.40562,0.27644 -1.14363,3.06028 l 0.0854,0.90708 -2.87245,0.21318 c -5.71091,0.42383 -5.97039,0.4678 -6.92506,1.17363 -0.7916,0.58525 -0.93635,0.89107 -0.93635,1.9782 0,0.70725 0.13606,1.37001 0.30236,1.47279 0.1663,0.10278 0.30236,0.70694 0.30236,1.34259 0,0.95072 -0.1743,1.2868 -0.98268,1.89473 -0.92294,0.69409 -2.21565,1.45059 -3.25039,1.90215 -1.91236,0.83455 -4.12383,2.22766 -4.38972,2.76529 -0.17628,0.35644 -0.48509,0.84639 -0.68626,1.08877 -0.20116,0.24239 -0.45373,1.08263 -0.56127,1.8672 -0.22281,1.62554 -0.94819,2.71697 -1.63148,2.45476 -0.50271,-0.1929 -2.40686,-2.94701 -2.40686,-3.4812 0,-0.18214 -0.23811,-0.6946 -0.52913,-1.1388 -0.43738,-0.6676 -0.52787,-1.49802 -0.52181,-4.78882 0.008,-4.22723 -0.0457,-4.00699 1.94714,-8.02123 1.60038,-3.22372 7.22198,-8.43347 9.10016,-8.43347 0.2645,0 0.80046,-0.34016 1.19104,-0.75591 0.39058,-0.41575 0.93133,-0.7559 1.20168,-0.7559 0.27035,0 0.62081,-0.12288 0.77879,-0.27307 0.28102,-0.26715 3.14201,-1.09006 5.3065,-1.5263 0.5987,-0.12067 1.39668,-0.43523 1.77329,-0.69902 0.37662,-0.26379 0.86762,-0.40945 1.09112,-0.32368 0.2235,0.0858 0.92221,-0.0229 1.55269,-0.24136 1.78054,-0.6171 4.62965,-0.87292 9.15892,-0.82237 0.6652,0.007 1.58363,0.005 2.04095,-0.005 1.73888,-0.0396 2.0188,10e-4 2.77514,0.40541 0.42769,0.2285 1.79432,0.56831 3.03695,0.75514 1.24264,0.18683 2.46721,0.51909 2.72126,0.73836 0.57882,0.49957 2.66045,0.83705 2.88837,0.46828 0.0934,-0.15112 -0.48238,-0.56012 -1.2795,-0.9089 -0.79712,-0.34878 -1.8575,-0.81999 -2.35639,-1.04713 -0.89678,-0.4083 -1.31515,-0.48155 -6.04725,-1.05887 -5.15536,-0.62895 -12.68451,-0.17508 -14.66842,0.88423 -0.25156,0.13432 -1.74826,0.61535 -3.32598,1.06894 -1.57772,0.4536 -3.00465,0.93173 -3.17095,1.06252 -0.1663,0.13079 -0.71055,0.31358 -1.20945,0.40619 -2.17165,0.4031 -2.95238,0.73391 -4.42034,1.87294 -5.10919,3.96439 -6.06959,4.78641 -6.37482,5.4563 -0.18597,0.40817 -0.44817,0.74213 -0.58267,0.74213 -0.48935,0 -2.49078,3.52355 -3.00556,5.29134 -0.52034,1.78686 -0.90969,3.96603 -1.02643,5.74488 -0.0975,1.48473 0.6625,5.35172 1.31123,6.67224 0.58507,1.19093 2.64348,3.50783 4.34741,4.89332 0.45732,0.37186 0.83149,0.88111 0.83149,1.13166 0,0.50691 -1.06771,0.62712 -1.36063,0.15318 z m -1.44485,-1.73858 c -2.39823,-1.81443 -3.62677,-4.26281 -4.16407,-8.29864 -0.41139,-3.09013 -0.22153,-5.10044 0.85107,-9.0116 0.51187,-1.86646 2.45915,-5.4119 2.98259,-5.43043 0.18769,-0.007 0.50413,-0.38626 0.70318,-0.84358 0.19905,-0.45733 1.45096,-1.64788 2.78203,-2.64567 1.33107,-0.9978 2.89765,-2.25684 3.4813,-2.79787 0.58366,-0.54103 1.42321,-1.05949 1.86568,-1.15212 0.44247,-0.0926 1.04075,-0.29627 1.32952,-0.45253 0.28877,-0.15625 0.90786,-0.2841 1.37575,-0.2841 0.46789,0 0.97998,-0.11425 1.13796,-0.2539 0.36159,-0.31961 1.5948,-0.76531 3.91559,-1.41514 0.9978,-0.27939 2.0863,-0.63327 2.4189,-0.7864 0.3326,-0.15313 0.87685,-0.33563 1.20945,-0.40556 0.3326,-0.0699 1.37831,-0.3352 2.32381,-0.5895 1.46106,-0.39297 4.22967,-0.53485 9.16595,-0.46972 1.77197,0.0234 5.71486,0.62075 6.07612,0.92056 0.22933,0.19033 0.61981,0.26822 0.86772,0.17309 0.54056,-0.20743 3.14132,0.61419 4.92388,1.55553 0.95646,0.50509 1.28504,0.86086 1.28504,1.39135 0,1.06322 -0.74353,1.56309 -1.68618,1.1336 -0.41864,-0.19075 -1.0502,-0.34682 -1.40345,-0.34682 -0.35326,0 -0.86538,-0.2019 -1.13806,-0.44868 -0.27268,-0.24677 -1.57599,-0.59914 -2.89625,-0.78305 -1.32026,-0.18391 -2.66071,-0.4732 -2.97877,-0.64286 -0.89064,-0.47509 -9.77073,-0.30909 -11.8046,0.22067 -0.93855,0.24446 -2.09134,0.44447 -2.56176,0.44447 -0.47042,0 -1.01325,0.1903 -1.20628,0.42289 -0.19303,0.23259 -0.85599,0.48455 -1.47324,0.55992 -1.54972,0.18923 -4.99122,1.13359 -5.34023,1.46538 -0.15799,0.15019 -0.47007,0.27307 -0.69351,0.27307 -0.22345,0 -0.77311,0.34016 -1.22148,0.75591 -0.44837,0.41574 -1.02271,0.7559 -1.27632,0.7559 -2.31177,0 -9.6742,7.6498 -9.6742,10.05181 0,0.21797 -0.23781,0.73273 -0.52845,1.14391 -1.07601,1.52221 -1.02379,8.02512 0.0752,9.36491 0.20461,0.24945 0.45537,0.80561 0.55725,1.23591 0.22351,0.94412 1.36201,2.45644 1.69453,2.25092 0.13106,-0.081 0.32704,-0.81629 0.43551,-1.63398 0.10847,-0.81769 0.39853,-1.65378 0.64458,-1.85798 0.24605,-0.2042 0.44736,-0.5488 0.44736,-0.76578 0,-0.56763 2.07364,-2.19524 3.07781,-2.41579 0.46909,-0.10303 0.8529,-0.30999 0.8529,-0.45991 0,-0.14991 0.37417,-0.3631 0.8315,-0.47373 1.06192,-0.25691 4.00852,-2.18561 4.23307,-2.77076 0.0941,-0.24513 0.0135,-0.69795 -0.17906,-1.00627 -0.19254,-0.30831 -0.35008,-1.43681 -0.35008,-2.50778 v -1.94722 l 1.60874,-0.78708 c 0.8848,-0.4329 2.00732,-0.78725 2.49449,-0.78745 0.48716,-2.1e-4 2.13594,-0.0774 3.66394,-0.17164 l 2.7782,-0.17126 -0.28371,-0.7462 c -0.72132,-1.89722 -0.19442,-2.73225 2.10179,-3.33086 1.40453,-0.36616 5.22194,-0.0437 5.92947,0.50085 0.1663,0.128 0.94314,0.32543 1.72631,0.43873 l 1.42395,0.20601 -0.17723,-1.49642 c -0.163,-1.37631 -0.11319,-1.53838 0.62061,-2.01918 1.08244,-0.70925 3.68164,-0.49701 4.94688,0.40392 0.50933,0.36267 1.16841,0.65941 1.46462,0.65941 0.29621,0 0.83718,0.28054 1.20216,0.62342 0.36498,0.34288 1.28023,0.809 2.03389,1.03582 1.23918,0.37293 1.41622,0.36164 1.85037,-0.1181 0.26405,-0.29177 0.48009,-0.79564 0.48009,-1.11972 0,-1.07287 0.86143,-1.93323 1.93564,-1.93323 0.58467,0 1.20355,-0.23126 1.50229,-0.56137 0.45352,-0.50114 0.45855,-0.60244 0.0469,-0.94411 -0.25365,-0.21051 -0.46118,-0.69466 -0.46118,-1.0759 0,-0.82134 -2.7539,-3.1635 -3.71962,-3.1635 -1.01199,0 -1.7229,-0.88158 -1.7229,-2.13652 0,-1.48061 -1.23723,-2.57771 -3.2468,-2.87906 -0.78637,-0.11793 -1.85781,-0.39326 -2.38096,-0.61185 -1.2015,-0.50201 -2.83838,-1.86601 -2.83838,-2.36519 0,-0.87713 -1.11729,-1.3396 -4.01365,-1.66134 -2.43598,-0.2706 -3.07367,-0.25374 -3.62835,0.0959 -0.37013,0.23332 -1.58969,0.51706 -2.71014,0.63054 l -2.03718,0.20633 -0.63956,-1.08397 c -0.746,-1.26438 -1.52947,-1.53108 -3.69303,-1.25712 -0.86405,0.10941 -1.81874,0.20177 -2.12153,0.20525 -1.19203,0.0137 -6.27032,3.35251 -8.21798,5.40303 -0.83149,0.87541 -2.23386,2.06161 -3.11635,2.636 -1.87262,1.2188 -2.80931,1.17579 -4.17691,-0.19181 -0.71535,-0.71536 -1.03899,-0.83286 -1.92355,-0.6984 -0.58493,0.0889 -1.31745,0.38136 -1.62783,0.64989 -1.07631,0.93116 -2.22246,2.91512 -2.59708,4.49546 -0.20709,0.87358 -0.49891,1.66397 -0.6485,1.75643 -0.14959,0.0925 -0.27198,0.6771 -0.27198,1.29922 0,0.62212 -0.12561,1.26039 -0.27913,1.41838 -0.15352,0.15798 -0.43905,1.17165 -0.63451,2.2526 -0.92491,5.11502 -1.53713,6.04724 -3.97146,6.04724 -0.83188,0 -1.46396,0.14954 -1.53518,0.36319 -0.24629,0.73888 0.41088,3.74527 0.99403,4.54743 0.33135,0.4558 0.68317,1.23224 0.7818,1.72543 0.0986,0.49318 0.97052,1.81169 1.93752,2.93001 1.44254,1.66829 1.79384,2.29269 1.95688,3.47815 0.1093,0.79465 0.10845,1.85582 -0.002,2.35815 -0.1805,0.82179 -0.0998,0.95858 0.8048,1.36502 0.55297,0.24844 1.58366,0.59652 2.29043,0.7735 0.70678,0.17699 1.28504,0.4347 1.28504,0.57269 0,0.138 0.53955,0.32327 1.19899,0.41172 0.65944,0.0885 1.5622,0.44652 2.00613,0.79572 0.44393,0.34919 1.01713,0.6349 1.27377,0.6349 0.26729,0 -0.003,-0.35521 -0.6324,-0.8315 z m -42.119985,-6.53168 c -0.093,-0.24237 -0.1255,-0.89583 -0.0722,-1.45213 l 0.0969,-1.01147 h 1.662995 1.66299 v 1.36063 1.36063 l -1.59079,0.0915 c -1.177145,0.0677 -1.634745,-0.0231 -1.759875,-0.34917 z m 2.713585,-0.67415 c 0.41014,-1.06881 0.20502,-1.3359 -1.02591,-1.3359 -1.065465,0 -1.209445,0.084 -1.209445,0.70551 0,0.38803 0.0907,0.79622 0.20157,0.90708 0.396385,0.3964 1.851465,0.19844 2.033785,-0.27669 z m 121.18677,-0.63919 0.0928,-1.45262 h 1.51181 1.51182 v 1.36063 1.36063 l -1.60464,0.092 -1.60464,0.092 z m 2.66291,-0.092 c 0,-0.83509 -0.084,-0.90709 -1.05827,-0.90709 -0.97427,0 -1.05826,0.072 -1.05826,0.90709 0,0.8351 0.084,0.90709 1.05826,0.90709 0.97428,0 1.05827,-0.072 1.05827,-0.90709 z M 105.6811,183.64599 c -0.37421,-0.27364 -0.51286,-0.63698 -0.40316,-1.05649 0.11324,-0.43304 0.006,-0.6864 -0.33086,-0.78496 -0.45956,-0.13428 -9.955415,-1.99204 -10.182235,-1.99204 -0.0553,0 -0.14403,0.30615 -0.19717,0.68032 -0.074,0.52142 -0.32613,0.70244 -1.0793,0.77506 -0.93175,0.0898 -0.98212,0.0428 -0.97205,-0.90708 0.015,-1.4116 0.77001,-4.77586 1.15921,-5.16506 0.23252,-0.23252 0.54728,-0.22456 1.10131,0.0279 0.59572,0.27143 0.7555,0.54202 0.68852,1.16607 l -0.0872,0.81261 4.837785,0.98835 c 5.8534,1.19583 5.82882,1.19444 5.95063,0.33681 0.0757,-0.53285 0.29322,-0.68031 1.0037,-0.68031 0.89745,0 0.90625,0.0161 0.82823,1.51181 -0.1164,2.23137 -0.7531,4.51403 -1.28762,4.61625 -0.25266,0.0483 -0.71606,-0.0998 -1.02977,-0.32922 z m 1.17859,-1.18782 c 0.50798,-2.23684 0.75022,-3.44672 0.75672,-3.77952 0.0132,-0.6741 -0.85462,-0.39913 -0.95425,0.30236 -0.087,0.61263 -0.24704,0.6737 -1.60843,0.61381 -0.8315,-0.0366 -3.48473,-0.45635 -5.896065,-0.93281 l -4.38425,-0.8663 0.003,-0.96523 c 0.005,-1.32609 -0.81692,-1.13389 -1.10152,0.25769 -0.58777,2.87383 -0.61486,3.63142 -0.12987,3.63142 0.27292,0 0.47207,-0.25911 0.47207,-0.61421 0,-0.33782 0.19001,-0.68713 0.42224,-0.77625 0.36475,-0.13996 5.576855,0.74636 10.267455,1.746 1.40894,0.30027 1.46065,0.34779 1.2926,1.18807 -0.21484,1.07418 0.61737,1.26287 0.85988,0.19497 z m 112.09158,0.77841 c -1.49483,-0.73667 -2.30797,-2.50977 -2.29912,-5.01335 0.004,-1.12355 0.14738,-2.18298 0.31869,-2.35429 0.1713,-0.1713 0.82984,-0.39558 1.46341,-0.4984 1.14451,-0.18573 1.15064,-0.18127 0.95056,0.6913 -0.50269,2.1923 -0.54802,3.18711 -0.18512,4.06323 0.30799,0.74355 0.53943,0.91046 1.16095,0.8372 0.87458,-0.10309 1.1752,-0.81641 1.22358,-2.90336 0.0346,-1.49351 0.68152,-2.92608 1.52521,-3.3776 0.83566,-0.44724 2.6287,-0.38338 3.61933,0.1289 1.02924,0.53224 1.89657,2.24929 2.06859,4.09521 0.17893,1.92014 -0.27971,2.92037 -1.45774,3.17912 -1.09941,0.24146 -1.62333,-0.25255 -1.16871,-1.10201 0.37675,-0.70398 0.35761,-2.8813 -0.0317,-3.6088 -0.35276,-0.65914 -1.19825,-0.76683 -1.74306,-0.22201 -0.19956,0.19956 -0.36284,1.08833 -0.36284,1.97506 0,2.25618 -0.63936,3.62834 -1.94476,4.17377 -1.34096,0.56029 -1.89336,0.54903 -3.13723,-0.064 z m 3.1921,-0.77285 c 0.79175,-0.38922 1.28106,-1.88164 1.28348,-3.91467 0.002,-1.65362 0.55252,-2.3649 1.83049,-2.3649 0.60934,0 1.0342,0.2376 1.38662,0.77547 0.50718,0.77404 0.64972,2.83991 0.27699,4.01429 -0.15566,0.49044 -0.0796,0.57344 0.4086,0.44577 0.74663,-0.19525 1.06047,-1.49208 0.77294,-3.19393 -0.44633,-2.64181 -3.27953,-4.16223 -4.91564,-2.63796 -0.69593,0.64836 -0.77314,0.89699 -1.17055,3.76953 -0.21759,1.5728 -0.36287,1.86595 -1.09836,2.21634 -1.7654,0.84105 -2.90005,-0.96618 -2.55099,-4.06312 0.12629,-1.12034 0.0702,-1.34115 -0.32165,-1.26569 -1.34092,0.25824 -0.98911,4.38328 0.49139,5.7617 1.27143,1.18378 1.95293,1.27017 3.60668,0.45717 z m -120.94476,-8.90872 c -4.912845,-1.70926 -6.576375,-2.41172 -6.576375,-2.77703 0,-0.76739 2.44918,-8.004 2.85623,-8.43932 0.52606,-0.5626 1.98157,0.0366 1.98157,0.81581 0,0.32537 -0.40819,1.69865 -0.90709,3.05173 -0.4989,1.35309 -0.90709,2.64371 -0.90709,2.86806 0,0.48855 2.778175,1.61965 2.948105,1.20029 0.0644,-0.15885 0.55073,-1.51339 1.08079,-3.01008 0.92834,-2.62125 0.99603,-2.71892 1.84185,-2.6577 0.48295,0.0349 1.00296,0.18841 1.15556,0.34102 0.16838,0.16838 -0.13803,1.47328 -0.77937,3.31909 l -1.05684,3.04163 2.22395,0.74773 2.22396,0.74775 0.92588,-2.5588 c 0.50923,-1.40733 0.92588,-2.73911 0.92588,-2.9595 0,-0.75037 0.8248,-1.15752 1.72841,-0.8532 1.15798,0.39 1.14656,0.44752 -1.62007,8.16427 -0.29889,0.83364 -0.6378,1.27823 -0.96485,1.26565 -0.27727,-0.0107 -3.46349,-1.04899 -7.0805,-2.3074 z m 8.55441,-2.39786 c 1.02808,-3.08502 1.19165,-3.86015 0.85807,-4.06632 -0.54904,-0.33932 -0.57134,-0.29803 -1.76778,3.27285 -0.57112,1.70457 -1.18073,3.09922 -1.35469,3.09922 -0.75415,0 -5.06146,-1.60956 -5.1877,-1.93854 -0.0765,-0.19941 0.32245,-1.67077 0.88659,-3.26969 0.93692,-2.65549 0.97941,-2.91925 0.49085,-3.04701 -0.54225,-0.14181 -1.12459,1.10462 -2.12638,4.5513 -0.24623,0.84716 -0.5449,1.28504 -0.8765,1.28504 -0.62383,0 -3.389825,-0.90313 -3.742865,-1.22209 -0.14283,-0.12905 0.23134,-1.61543 0.8315,-3.30308 1.25778,-3.53689 1.27322,-3.63861 0.55223,-3.63861 -0.42009,0 -0.79696,0.78358 -1.70874,3.55276 -0.64338,1.95401 -1.18321,3.73584 -1.19962,3.95962 -0.0195,0.26612 2.16664,1.16795 6.319755,2.60701 3.49229,1.21008 6.44083,2.14817 6.55233,2.08464 0.1115,-0.0635 0.77432,-1.83072 1.47295,-3.9271 z m 105.8438,2.56335 c -0.22734,-0.65216 -0.23423,-1.06944 -0.0219,-1.32532 0.22016,-0.26528 0.17683,-0.42456 -0.14957,-0.54981 -1.39638,-0.53584 -2.20137,-4.15879 -1.21401,-5.46372 0.78866,-1.04232 2.07641,-1.68322 3.38616,-1.68526 1.61425,-0.002 2.97817,1.12361 4.20534,3.47219 0.47836,0.91549 0.95514,1.66486 1.0595,1.66525 0.10436,3e-4 0.3579,-0.20188 0.5634,-0.44951 0.51045,-0.61504 0.16672,-2.24739 -0.76114,-3.61468 -1.13551,-1.67325 -0.89887,-2.2847 0.88421,-2.2847 0.99999,0 2.44977,3.15213 2.44977,5.32631 0,2.27369 -0.63764,2.80015 -5.43105,4.48418 -2.15559,0.75731 -4.08117,1.37692 -4.27909,1.37692 -0.19791,0 -0.50916,-0.42834 -0.69166,-0.95185 z m 8.03841,-2.22828 c 1.27242,-0.52951 2.02741,-1.99445 1.76067,-3.41628 -0.28406,-1.51421 -1.58996,-3.98627 -2.10579,-3.98627 -0.57448,0 -0.86468,0.50969 -0.43975,0.77231 0.5304,0.32781 1.47128,2.61101 1.47862,3.58813 0.008,1.06394 -0.75495,1.98917 -1.64029,1.98917 -0.49462,0 -0.83873,-0.41961 -1.4675,-1.78944 -1.53909,-3.35307 -3.69913,-4.25228 -5.79473,-2.41231 -1.66599,1.46275 -1.45779,3.42935 0.54911,5.18671 0.86159,0.75446 0.90454,0.87073 0.45137,1.22207 -0.35765,0.27729 -0.42024,0.53224 -0.21896,0.89189 0.25529,0.45619 0.57296,0.40243 3.37324,-0.57089 1.70028,-0.59098 3.52458,-1.25477 4.05401,-1.47509 z m -7.1297,-0.60992 c -1.01334,-1.15413 -1.24478,-2.62972 -0.55947,-3.56694 0.57681,-0.78883 2.35752,-0.93715 3.14187,-0.26169 0.83509,0.71916 2.23933,3.48266 1.97408,3.88493 -0.26015,0.39454 -2.05366,1.01249 -2.93861,1.01249 -0.39924,0 -1.06648,-0.44079 -1.61787,-1.06879 z m 2.94718,0.13212 c 0.52371,-0.18257 0.9522,-0.39208 0.9522,-0.46559 0,-0.41659 -1.24292,-2.46574 -1.80266,-2.97197 -0.60319,-0.54552 -0.72461,-0.55723 -1.46839,-0.14164 -1.12337,0.62768 -1.19863,1.76937 -0.19524,2.96183 0.87979,1.04557 1.11797,1.10406 2.51409,0.61737 z M 110.34032,165.0371 c -1.47578,-0.79059 -1.43713,-1.28491 0.16675,-2.13244 2.03003,-1.07272 3.45593,-3.80707 2.63019,-5.04373 -0.25985,-0.38917 -1.40779,-1.02794 -1.8473,-1.02794 -0.16735,0 -1.33149,0.95244 -2.58697,2.11653 -2.13246,1.97725 -2.37341,2.11654 -3.66132,2.11654 -2.69873,0 -4.36901,-1.65013 -4.37109,-4.31838 -0.001,-1.85366 0.51582,-3.04221 2.10123,-4.82808 1.36072,-1.53277 2.01236,-1.72582 3.19961,-0.9479 1.03629,0.679 0.93502,1.10785 -0.44471,1.88331 -2.21615,1.24554 -3.1926,4.02012 -1.76637,5.0191 1.11043,0.77777 1.67556,0.56017 3.8507,-1.48271 2.21573,-2.08099 3.03791,-2.46013 4.67066,-2.15383 3.11279,0.58397 4.43721,4.10357 2.77701,7.37981 -0.57141,1.12762 -3.13657,3.98411 -3.57778,3.98411 -0.0479,0 -0.56116,-0.25398 -1.14061,-0.56439 z m 2.52652,-1.53852 c 3.00587,-3.32714 3.05477,-6.88165 0.11387,-8.2772 -1.89113,-0.89739 -2.49454,-0.67298 -5.25517,1.95446 -1.56263,1.48724 -2.03873,1.77368 -2.94803,1.77368 -3.5827,0 -2.82053,-5.41966 0.97969,-6.96642 0.27127,-0.11042 0.14715,-0.2992 -0.38342,-0.58315 -0.73366,-0.39265 -0.84983,-0.35661 -1.79089,0.5555 -1.33275,1.29175 -2.30919,3.30644 -2.30673,4.75947 0.003,2.01522 1.55679,3.71226 3.41946,3.7357 1.19051,0.015 1.89885,-0.41479 4.03584,-2.44868 2.04967,-1.95078 2.69231,-2.12765 4.25925,-1.17227 0.86449,0.52709 0.98267,0.75621 0.98267,1.90503 0,1.66537 -1.28675,3.76885 -2.80462,4.58478 -0.84066,0.4519 -1.022,0.68247 -0.77285,0.98268 0.56836,0.68484 1.35833,0.42793 2.47093,-0.80358 z m 98.84227,0.5952 c -0.2063,-0.33034 -0.37509,-0.80402 -0.37509,-1.05262 0,-0.25373 1.38941,-1.26944 3.16752,-2.31556 1.74214,-1.02496 3.39972,-2.12013 3.6835,-2.4337 0.70825,-0.78262 0.24917,-2.00744 -1.03311,-2.75634 l -0.98191,-0.57346 -1.73769,0.98188 c -0.95573,0.54003 -2.18857,1.23566 -2.73965,1.54584 -0.55108,0.31017 -1.31427,0.76858 -1.69598,1.01869 -0.83595,0.54773 -1.49447,0.34665 -1.91947,-0.58614 -0.4992,-1.09562 -0.70832,-0.93472 6.58277,-5.06501 1.41355,-0.80075 2.71717,-1.45838 2.89694,-1.4614 0.45448,-0.008 1.14926,1.37395 0.9509,1.89089 -0.0986,0.25695 0.18622,0.63179 0.71941,0.94675 0.48545,0.28677 1.16493,1.07471 1.50994,1.75099 0.77366,1.51651 0.59012,2.86713 -0.5437,4.00095 -1.08748,1.08747 -7.13584,4.70886 -7.86464,4.70886 -0.13455,0 -0.41344,-0.27028 -0.61974,-0.60062 z m 4.31152,-2.09127 c 3.25618,-1.91565 4.23716,-2.77518 4.51962,-3.96008 0.23844,-1.0002 -0.73655,-2.56116 -2.10346,-3.36766 -0.9771,-0.5765 -1.44069,-1.47013 -0.76265,-1.47013 0.16107,0 0.21455,-0.2041 0.11883,-0.45354 -0.0957,-0.24945 -0.33291,-0.45355 -0.52709,-0.45355 -0.33293,0 -7.95494,4.33371 -8.41376,4.78389 -0.1178,0.11558 -0.0974,0.39915 0.0454,0.63016 0.20609,0.33348 0.95245,0.0306 3.62209,-1.46993 3.7416,-2.10305 4.27306,-2.16032 5.80747,-0.62591 1.11239,1.11239 1.15938,2.4347 0.12075,3.39777 -0.41117,0.38126 -2.04392,1.42466 -3.62834,2.31867 -2.80124,1.58059 -3.10045,1.83227 -2.67918,2.25354 0.38506,0.38506 0.87321,0.18588 3.88031,-1.58323 z m 6.39084,-5.6643 c -0.67679,-0.67678 -0.79714,-1.06013 -0.79714,-2.53907 v -1.74194 l -0.94104,0.0446 c -1.2614,0.0598 -1.89893,-0.84868 -1.04211,-1.48494 0.84255,-0.62565 2.37777,-0.53695 3.30301,0.19084 0.70345,0.55333 0.79668,0.84022 0.79668,2.45167 0,1.81363 0.005,1.82378 0.78483,1.62803 1.5468,-0.38822 2.33,1.39361 0.85848,1.95308 -1.27338,0.48414 -2.11981,0.34064 -2.96271,-0.50226 z m 2.59337,-0.0557 c 0.75343,-0.299 0.2358,-0.81017 -0.82043,-0.81017 -0.89648,0 -0.90817,-0.0212 -0.99988,-1.80938 -0.11066,-2.15783 -0.66795,-2.94852 -1.985,-2.81632 -0.49459,0.0496 -0.96231,0.28202 -1.03939,0.5164 -0.0997,0.30324 0.0148,0.36666 0.39726,0.21991 1.206,-0.46278 1.66166,0.0443 1.66166,1.84933 0,2.41029 1.08837,3.52384 2.78578,2.85023 z m -19.55509,-1.74169 c -0.28121,-0.42918 -0.43719,-0.97343 -0.34662,-1.20945 0.10722,-0.27941 -0.0393,-0.42911 -0.42005,-0.42911 -0.86484,0 -2.63451,-1.69029 -3.03262,-2.89659 -0.61514,-1.8639 0.58528,-4.0048 2.62251,-4.67714 1.37824,-0.45486 2.75697,0.0321 4.79814,1.69464 1.33717,1.08914 1.67017,1.24 1.96171,0.8887 0.19314,-0.23271 0.26425,-0.69692 0.15804,-1.03158 -0.19874,-0.62617 -2.76171,-3.0489 -3.2254,-3.0489 -0.45641,0 -0.27874,-0.79621 0.29315,-1.31377 0.96424,-0.87262 1.71821,-0.58964 3.46985,1.30234 3.06537,3.31097 2.83857,4.43874 -1.70646,8.48553 -1.85603,1.65256 -3.52903,3.00713 -3.71777,3.01016 -0.18875,0.003 -0.57327,-0.34564 -0.85448,-0.77483 z m 4.13494,-2.69991 c 1.6155,-1.41162 3.09063,-2.85313 3.27807,-3.20335 0.61521,-1.14955 0.0623,-2.6207 -1.64908,-4.38758 -1.12152,-1.1579 -1.74449,-1.58962 -2.09805,-1.45395 -0.74969,0.28769 -0.61747,0.61285 0.54015,1.3283 1.14462,0.70741 2.28843,2.32748 2.27335,3.21991 -0.0127,0.74875 -0.69625,1.62731 -1.26619,1.62731 -0.24928,0 -1.07468,-0.54702 -1.83423,-1.2156 -0.75954,-0.66858 -1.8672,-1.41875 -2.46146,-1.66705 -0.94309,-0.39405 -1.21205,-0.39648 -2.11523,-0.0191 -3.03605,1.26854 -2.54257,5.34588 0.75446,6.23368 1.17819,0.31725 1.47961,0.68485 0.87033,1.0614 -0.31601,0.19531 0.16041,1.05319 0.58084,1.04591 0.10437,-0.002 1.51153,-1.15825 3.12704,-2.56987 z m -5.05887,-0.79782 c -0.9141,-0.80259 -1.07005,-1.11833 -0.9932,-2.01091 0.13003,-1.51033 1.33524,-2.38236 2.65617,-1.92188 1.3484,0.47005 3.33105,2.11154 3.33105,2.75785 0,0.77689 -1.89976,2.12702 -2.99292,2.12702 -0.59707,0 -1.29486,-0.33199 -2.0011,-0.95208 z m 3.59269,-0.43361 c 0.47651,-0.41902 0.81667,-0.81112 0.75591,-0.87133 -0.98713,-0.9781 -2.63673,-1.97605 -3.26639,-1.97605 -1.72636,0 -2.06648,1.61195 -0.60042,2.84556 1.16163,0.97745 2.00085,0.97794 3.1109,0.002 z m -90.1662,-5.66208 c -1.52321,-3.87627 -2.76948,-7.18436 -2.76948,-7.3513 0,-0.16695 0.41409,-0.70026 0.92019,-1.18513 l 0.92018,-0.8816 1.5743,0.88427 c 0.86587,0.48635 2.79888,1.64514 4.29557,2.5751 1.49669,0.92995 3.76945,2.29794 5.05058,3.03996 1.28112,0.74203 2.41028,1.54765 2.50924,1.79026 0.21007,0.51506 -0.94126,1.50751 -1.76046,1.51752 -0.30264,0.004 -1.14353,-0.40147 -1.86865,-0.90037 -0.72513,-0.49889 -1.41529,-0.90708 -1.53369,-0.90708 -0.11841,0 -0.97831,0.63876 -1.91088,1.41948 -0.93257,0.78071 -1.75703,1.46578 -1.83213,1.52236 -0.0751,0.0566 0.18902,1.04173 0.58692,2.1892 l 0.72346,2.08631 -0.7381,0.61434 c -0.40596,0.33788 -0.88648,0.61886 -1.06784,0.62439 -0.18135,0.006 -1.576,-3.16144 -3.09921,-7.03771 z m 3.81932,5.76273 c 0.22273,-0.26875 0.10589,-0.85845 -0.40438,-2.04094 -0.39469,-0.91465 -0.72308,-1.81764 -0.72976,-2.00664 -0.0166,-0.47019 4.02001,-3.73825 4.61739,-3.73825 0.26417,0 1.08514,0.40819 1.82436,0.90709 1.51182,1.02031 1.79343,1.08154 2.27966,0.49566 0.27357,-0.32963 -0.1849,-0.72991 -2.30628,-2.01352 -1.45626,-0.88116 -4.16359,-2.53287 -6.0163,-3.67047 -1.85271,-1.1376 -3.56642,-2.06836 -3.80826,-2.06836 -0.24183,0 -0.65558,0.23855 -0.91945,0.53012 -0.44278,0.48927 -0.27877,1.04846 2.12838,7.25669 1.43448,3.69962 2.70112,6.72657 2.81477,6.72657 0.11365,0 0.34759,-0.17008 0.51987,-0.37795 z m -3.07184,-8.69119 c -1.26782,-3.25982 -1.30295,-4.36721 -0.11167,-3.52017 0.37213,0.2646 1.65772,1.05246 2.85688,1.75082 1.19915,0.69835 2.24738,1.44462 2.3294,1.65836 0.16886,0.44005 -2.83706,3.13678 -3.48401,3.12564 -0.25051,-0.004 -0.89453,-1.22494 -1.5906,-3.01465 z m 4.34446,0.11695 c 0,-0.0306 -0.71433,-0.49662 -1.5874,-1.03561 -0.87307,-0.53899 -1.96668,-1.24134 -2.43024,-1.56077 l -0.84285,-0.58079 0.49272,1.15129 c 0.271,0.63322 0.76859,1.8588 1.10577,2.72353 l 0.61305,1.57223 1.32448,-1.10713 c 0.72846,-0.60891 1.32447,-1.13215 1.32447,-1.16275 z m 73.22239,3.49205 c -0.37835,-0.3525 -0.6466,-0.76264 -0.5961,-0.91142 0.24738,-0.72884 6.72159,-8.74655 7.06273,-8.74655 0.21619,0 0.67577,0.35939 1.02129,0.79865 0.48026,0.61054 0.54792,0.89541 0.28729,1.20945 -0.2751,0.33147 -0.15573,0.4108 0.61819,0.4108 1.20441,0 2.74327,0.77532 2.74327,1.38214 0,0.25274 -0.33403,0.79355 -0.74229,1.20181 l -0.74229,0.74229 -1.11408,-0.75603 c -1.18967,-0.80734 -2.68093,-0.99966 -2.93155,-0.37808 -0.28119,0.69739 -4.20858,5.5171 -4.56564,5.60297 -0.19409,0.0467 -0.66246,-0.20354 -1.04082,-0.55603 z m 3.37118,-3.1636 c 2.47803,-3.0946 3.27174,-3.43635 5.25846,-2.26416 0.86343,0.50944 1.14105,0.56064 1.33988,0.24713 0.13794,-0.2175 0.25289,-0.50086 0.25543,-0.6297 0.007,-0.34142 -1.40827,-0.82402 -2.4161,-0.82402 -1.01795,0 -1.40653,-0.45426 -0.90525,-1.05826 0.3911,-0.47125 0.16705,-1.06427 -0.3958,-1.04762 -0.29685,0.009 -5.21628,6.07183 -6.04576,7.45123 -0.28093,0.46717 0.008,1.08248 0.44128,0.93821 0.16166,-0.0539 1.27219,-1.31965 2.46786,-2.81281 z m -68.86607,0.5471 c -0.20065,-0.52288 -2.74751,-4.63045 -5.94713,-9.59153 -1.37447,-2.13114 -1.68053,-2.8164 -1.45017,-3.24683 0.39467,-0.73746 1.82688,-1.08592 2.15777,-0.52499 0.13816,0.2342 1.94796,3.14377 4.02177,6.4657 2.07381,3.32194 3.77057,6.1296 3.77057,6.23925 0,0.30111 -1.43015,1.17599 -1.92236,1.17599 -0.23751,0 -0.52121,-0.23292 -0.63045,-0.51759 z m -1.84058,-6.6355 c -1.95793,-3.13352 -3.68522,-5.8593 -3.83841,-6.05729 -0.36104,-0.46659 -1.22369,-0.13933 -1.02151,0.38753 0.0851,0.22167 1.81737,3.0669 3.84957,6.32271 3.22474,5.16641 3.75059,5.86398 4.13256,5.48201 0.38196,-0.38196 -0.0153,-1.16262 -3.12221,-6.13496 z m 62.29576,5.72485 c -0.3326,-0.0818 -0.74079,-0.25297 -0.90709,-0.38048 -0.1663,-0.12751 -1.28882,-0.73818 -2.49449,-1.35704 -1.26498,-0.64931 -2.19212,-1.31942 -2.19212,-1.58439 0,-0.25255 1.26156,-2.72267 2.80347,-5.48916 1.54191,-2.76649 3.06954,-5.54022 3.39474,-6.16384 0.32692,-0.62691 0.8188,-1.13386 1.10017,-1.13386 0.73924,0 4.78148,2.33014 5.92682,3.41651 1.57829,1.49701 1.61022,3.37795 0.0846,4.98623 -0.36129,0.38087 -1.05099,0.77132 -1.53266,0.86765 -0.82251,0.1645 -0.84869,0.21383 -0.43042,0.811 0.61697,0.88083 0.55647,2.42413 -0.14925,3.80745 -0.92628,1.81567 -3.34705,2.77465 -5.60381,2.21993 z m 2.58727,-0.68807 c 2.25505,-0.62646 3.6657,-3.33328 2.5915,-4.97271 -0.71658,-1.09364 -0.62624,-1.67949 0.25898,-1.67949 0.41313,0 1.18868,-0.39095 1.72346,-0.86877 0.75517,-0.67474 0.97233,-1.11278 0.97233,-1.96128 0,-1.4611 -1.09024,-2.56519 -4.05724,-4.1088 l -2.32764,-1.21097 -3.20686,5.70557 c -1.76377,3.13807 -3.24573,5.87346 -3.29323,6.07865 -0.12513,0.5405 4.46569,3.01238 6.11206,3.29098 0.0832,0.0141 0.63514,-0.10886 1.22664,-0.27318 z m -3.87231,-1.81686 c -1.03937,-0.52351 -1.88976,-1.06682 -1.88976,-1.20737 0,-0.14055 0.55607,-1.28647 1.23571,-2.54648 0.79613,-1.47598 1.41936,-2.29094 1.75196,-2.29094 0.81285,0 3.681,1.88291 4.19417,2.75342 0.88822,1.50671 -0.42125,3.78654 -2.34405,4.08108 -0.80405,0.12317 -1.51222,-0.0665 -2.94803,-0.78971 z m 3.36741,0.0155 c 0.90568,-0.34434 1.77146,-1.86784 1.5,-2.63951 -0.41697,-1.18531 -3.47349,-3.06293 -3.95425,-2.4291 -0.51767,0.68248 -1.89584,3.19544 -1.89584,3.45687 0,0.32172 1.59669,1.28104 2.67368,1.6064 0.44192,0.1335 0.82865,0.25443 0.8594,0.26872 0.0308,0.0143 0.3984,-0.10423 0.81701,-0.26338 z m -0.17181,-6.22072 c -0.77849,-0.40538 -1.49465,-0.86525 -1.59149,-1.02192 -0.3045,-0.4927 1.74153,-3.94717 2.34112,-3.95272 0.29902,-0.003 1.28188,0.4672 2.18415,1.04437 1.99057,1.27336 2.30183,2.10373 1.35986,3.62787 -0.56521,0.91453 -0.81886,1.06559 -1.76902,1.05353 -0.61006,-0.008 -1.74614,-0.34575 -2.52462,-0.75113 z m 3.25992,-0.0709 c 0.18298,-0.12218 0.49391,-0.52828 0.69096,-0.90245 0.51457,-0.97713 0.002,-1.74313 -1.76804,-2.63984 l -1.4786,-0.74926 -0.77556,1.38764 c -0.42656,0.7632 -0.69993,1.51001 -0.6075,1.65958 0.2728,0.44139 2.34586,1.44827 3.00133,1.45774 0.3326,0.005 0.75443,-0.0912 0.93741,-0.21341 z m -60.95631,7.55371 c -0.24945,-0.065 -1.33239,-1.87528 -2.40654,-4.02289 -1.57319,-3.14539 -2.05503,-3.87237 -2.47766,-3.73823 -0.3466,0.11001 -0.69784,-0.0978 -1.03489,-0.61216 -0.4566,-0.69687 -0.46217,-0.83348 -0.0529,-1.30008 0.30453,-0.34723 0.37544,-0.72338 0.21228,-1.12611 -0.82638,-2.03979 0.0667,-4.02472 2.25882,-5.02032 1.61783,-0.73479 1.82687,-0.71645 2.24295,0.19675 0.51327,1.12651 0.45563,1.26494 -0.68319,1.64078 -1.35522,0.44727 -1.80217,1.02046 -1.5571,1.9969 0.1495,0.59567 0.32333,0.73478 0.71408,0.57146 2.19042,-0.91551 2.21303,-0.91815 2.65744,-0.31038 0.67537,0.92363 0.51816,1.32064 -0.78658,1.98626 l -1.21569,0.6202 1.9716,3.87735 c 1.08438,2.13254 1.97159,4.01757 1.97159,4.18896 0,0.449 -1.27971,1.19074 -1.81417,1.05151 z m 0.7194,-0.84935 c 0.38067,-0.14607 0.10709,-0.89622 -1.48709,-4.07757 -1.07446,-2.14421 -1.95357,-4.0794 -1.95357,-4.30042 0,-0.22102 0.47622,-0.62895 1.05827,-0.90651 0.58205,-0.27756 1.05827,-0.71095 1.05827,-0.96309 0,-0.58553 -0.0926,-0.57774 -1.46723,0.12354 -1.40149,0.71499 -1.85574,0.47426 -2.06622,-1.09495 -0.14104,-1.05152 -0.056,-1.28793 0.66843,-1.85775 0.45652,-0.35909 1.01578,-0.6529 1.2428,-0.6529 0.44238,0 0.57208,-0.77294 0.17127,-1.02065 -0.45658,-0.28218 -2.63135,1.19148 -3.05189,2.06801 -0.35114,0.73188 -0.35645,1.12903 -0.032,2.39497 0.28803,1.12382 0.29918,1.54751 0.043,1.6329 -0.66917,0.22306 -0.35496,0.97202 0.40779,0.97202 0.66376,0 0.98891,0.46929 2.72343,3.9307 1.08332,2.16189 2.02561,3.93071 2.09397,3.93071 0.0683,0 0.33421,-0.0805 0.59078,-0.17901 z m 3.10883,-5.49028 c -0.79851,-2.12031 -1.71136,-4.49949 -2.02857,-5.28705 l -0.57674,-1.43194 0.86028,-0.44487 c 0.72052,-0.3726 0.94965,-0.37953 1.41037,-0.0426 0.48434,0.35416 0.66506,0.28033 1.51199,-0.61768 1.38924,-1.47302 2.45575,-1.32834 2.98689,0.40521 0.17019,0.55547 0.0352,0.74109 -0.79449,1.09213 -0.54975,0.2326 -1.26416,0.7198 -1.58758,1.08268 -0.6692,0.75082 -0.58062,1.25437 0.88261,5.01739 1.22273,3.1445 1.23631,3.30253 0.31982,3.72011 -0.43671,0.19898 -0.96024,0.36178 -1.16339,0.36178 -0.20316,0 -1.02269,-1.7348 -1.82119,-3.85512 z m 2.82374,2.47651 c 0,-0.22376 -0.55152,-1.83467 -1.22559,-3.57981 -1.16293,-3.01075 -1.20226,-3.21809 -0.76922,-4.05548 0.251,-0.48538 0.93857,-1.11134 1.52795,-1.39101 1.04086,-0.49392 1.37842,-1.16189 0.77547,-1.53454 -0.4637,-0.28658 -1.4346,0.36627 -2.02099,1.35895 -0.57873,0.97973 -1.22688,1.17421 -1.50426,0.45137 -0.18963,-0.49416 -0.88362,-0.6107 -1.14248,-0.19186 -0.089,0.14393 0.29226,1.40251 0.84713,2.79685 0.55488,1.39434 1.37692,3.51391 1.82678,4.71017 0.59253,1.57568 0.93739,2.12915 1.25156,2.00859 0.2385,-0.0915 0.43365,-0.34948 0.43365,-0.57323 z m 6.02097,-2.33427 c -2.7417,-1.84763 -3.45869,-6.46114 -1.44952,-9.32701 0.92994,-1.32646 2.82469,-1.97314 5.32614,-1.81781 1.10572,0.0687 2.49547,1.57045 3.09665,3.34626 0.30458,0.89973 0.48955,1.80328 0.41103,2.00789 -0.0785,0.20461 -1.05186,0.5314 -2.16299,0.72619 -5.1256,0.89857 -5.14167,0.90354 -4.97549,1.53901 0.23119,0.88406 1.82975,2.09913 2.75169,2.09155 0.91279,-0.008 3.19651,-0.9663 3.51009,-1.47368 0.11348,-0.18362 0.47043,-0.33385 0.79321,-0.33385 0.48968,0 0.58603,0.21283 0.58172,1.28504 -0.005,1.25975 -0.0363,1.29846 -1.5874,1.96718 -2.18146,0.94047 -4.89046,0.93584 -6.29513,-0.0108 z m 5.97806,-0.54716 c 1.03512,-0.5011 1.30491,-0.7921 1.30491,-1.4075 0,-0.72575 -0.0348,-0.74426 -0.5402,-0.28692 -0.82487,0.74649 -2.64422,1.41903 -3.83879,1.41903 -1.33698,0 -3.09696,-1.52195 -3.36166,-2.907 l -0.17995,-0.94165 2.97762,-0.52217 c 4.30575,-0.75507 4.33825,-0.7657 4.33825,-1.41889 0,-0.86513 -1.10301,-2.86995 -1.8774,-3.41236 -0.87431,-0.61239 -3.04274,-0.6063 -4.34615,0.0122 -0.56299,0.26715 -1.3311,0.98148 -1.70692,1.5874 -1.4462,2.33162 -0.55487,6.5598 1.66865,7.91555 1.32717,0.80922 3.84742,0.79213 5.56164,-0.0377 z m -6.85887,-5.88411 c 0,-1.90993 1.42228,-3.15979 3.59571,-3.15979 1.18246,0 1.73023,0.4001 2.45096,1.79024 0.52771,1.01783 -0.0544,1.38047 -2.89367,1.80276 -3.11035,0.46261 -3.153,0.45674 -3.153,-0.43321 z m 3.86337,-0.34147 c 1.56399,-0.21951 1.78153,-0.49906 1.14469,-1.47098 -0.71519,-1.09153 -2.35246,-1.02584 -3.51951,0.14121 -1.2359,1.2359 -1.19315,1.97626 0.0988,1.71215 0.54047,-0.11048 1.56466,-0.28255 2.27597,-0.38238 z m 20.7426,7.02763 c -0.519,-0.22588 -1.33538,-0.92476 -1.81418,-1.55306 -0.79523,-1.04354 -0.86982,-1.35354 -0.86233,-3.58376 0.0135,-4.01775 1.6451,-6.20818 4.80189,-6.44657 2.17939,-0.16458 4.01862,0.81528 4.96387,2.64453 1.40097,2.71114 0.22451,7.3258 -2.21491,8.68794 -1.38827,0.77519 -3.42844,0.88022 -4.87434,0.25092 z m 5.3479,-1.59306 c 0.78806,-0.84484 1.21761,-1.66358 1.456,-2.77517 0.46702,-2.17764 0.43154,-2.675 -0.29843,-4.18292 -1.57911,-3.262 -5.87853,-3.32934 -7.76427,-0.12159 -1.08612,1.84754 -1.18645,5.23885 -0.19497,6.59045 0.97387,1.32759 2.44948,1.96704 4.1918,1.81652 1.26907,-0.10964 1.65906,-0.30798 2.60987,-1.32729 z m -4.47795,0.20454 c -1.22827,-0.49382 -1.94813,-2.05511 -1.77966,-3.85986 0.33249,-3.56185 2.0396,-5.3475 4.42814,-4.63188 1.6407,0.49157 2.11182,1.29211 2.11182,3.58847 0,3.89449 -2.04082,5.99661 -4.7603,4.90327 z m 2.9688,-1.22501 c 0.61613,-0.65956 0.93406,-1.38753 1.08945,-2.49449 0.35792,-2.54973 -0.0681,-3.63895 -1.62398,-4.15245 -1.30672,-0.43125 -2.35831,0.18696 -3.03013,1.78135 -0.60608,1.43837 -0.65391,4.05483 -0.0866,4.73836 1.06376,1.28176 2.52523,1.33268 3.65129,0.12723 z m -15.36569,1.84902 c -1.25615,-0.30199 -1.8061,-0.76979 -2.47687,-2.10688 -1.22841,-2.44866 -1.00364,-6.17478 0.49066,-8.13391 1.05215,-1.37944 2.55803,-1.97638 4.37703,-1.73508 l 1.43441,0.19028 0.0896,-2.0495 0.0896,-2.0495 1.08657,-0.091 1.08656,-0.091 0.19847,3.69125 c 0.10917,2.03018 0.19848,5.57477 0.19848,7.87685 v 4.1856 h -1.20945 c -0.66519,0 -1.20945,-0.1392 -1.20945,-0.30934 0,-0.17486 -0.29572,-0.12205 -0.68031,0.1215 -0.92656,0.58678 -2.29648,0.78417 -3.4753,0.50077 z m 3.61986,-1.43362 c 0.55997,-0.50677 0.61014,-0.50724 0.97435,-0.009 0.21119,0.28882 0.60709,0.52512 0.87978,0.52512 0.43637,0 0.49561,-0.51646 0.49423,-4.30866 -9e-4,-2.36976 -0.0894,-5.63528 -0.19678,-7.25669 -0.1719,-2.59593 -0.262,-2.94803 -0.75434,-2.94803 -0.49422,0 -0.55912,0.26322 -0.55912,2.26771 0,2.46522 -0.006,2.47143 -1.80925,1.93111 -1.6876,-0.50562 -3.66208,0.44213 -4.5852,2.20091 -1.21369,2.31236 -0.71884,6.45872 0.9228,7.73216 1.31174,1.01752 3.42847,0.95609 4.63353,-0.13447 z m -3.28654,-0.53803 c -1.23279,-0.52048 -1.72829,-1.98358 -1.56109,-4.60949 0.11358,-1.78377 0.22358,-2.06271 1.1343,-2.87643 0.91201,-0.81489 1.16354,-0.88826 2.62845,-0.76678 0.89096,0.0739 1.70295,0.21735 1.80441,0.31881 0.10146,0.10147 0.20367,1.70565 0.22712,3.56487 0.0414,3.28329 0.0209,3.39581 -0.71326,3.91747 -1.05624,0.75048 -2.40276,0.92321 -3.51993,0.45155 z m 3.18273,-1.02067 c 0.69818,-0.45236 0.71566,-0.55788 0.55072,-3.32256 -0.18477,-3.097 -0.33536,-3.35898 -1.93524,-3.36665 -1.60065,-0.008 -2.57832,1.09166 -2.74363,3.08506 -0.3131,3.77557 1.4661,5.32893 4.12815,3.60415 z"
     style="fill:#000000;stroke-width:0.30236223" />
</svg>
